<svg width="143" height="115" viewBox="0 0 143 115" fill="none" xmlns="http://www.w3.org/2000/svg">
<path d="M0.928 36.304H24.448V41.776H0.928V36.304ZM28.4466 0.399998H39.5826L41.5026 25.648V30.544H42.6546V25.648L44.5746 0.399998H55.7106V34H49.9506V11.536L50.5266 3.856H49.3746L46.8786 34H37.3746L34.7826 3.856H33.6306L34.2066 11.536V34H28.4466V0.399998ZM76.6533 10.192H82.7013V39.856C82.7013 40.944 82.3493 41.84 81.6453 42.544C80.9733 43.248 80.0933 43.6 79.0053 43.6H64.8453V37.84H75.3573C76.2213 37.84 76.6533 37.36 76.6533 36.4V30.544H75.7893C74.7333 33.296 72.4613 34.672 68.9733 34.672C67.7893 34.672 66.6853 34.48 65.6613 34.096C64.6373 33.712 63.7413 33.12 62.9733 32.32C62.2053 31.52 61.5973 30.528 61.1493 29.344C60.7333 28.128 60.5253 26.704 60.5253 25.072V10.192H66.5733V23.824C66.5733 25.52 66.9733 26.848 67.7733 27.808C68.5733 28.736 69.7733 29.2 71.3733 29.2C73.1973 29.2 74.5253 28.624 75.3573 27.472C76.2213 26.288 76.6533 24.688 76.6533 22.672V10.192ZM59.3733 71.4H83.5653V77.448H74.6373V105H68.3013V77.448H59.3733V71.4ZM90.3479 99.24H98.4119V86.952H90.9239V81.192H104.46V99.24H111.372V105H90.3479V99.24ZM105.948 74.136C105.948 74.776 105.82 75.384 105.564 75.96C105.34 76.504 105.02 76.984 104.604 77.4C104.188 77.784 103.692 78.104 103.116 78.36C102.572 78.584 101.996 78.696 101.388 78.696C100.748 78.696 100.156 78.584 99.6119 78.36C99.0679 78.104 98.5879 77.784 98.1719 77.4C97.7559 76.984 97.4199 76.504 97.1639 75.96C96.9399 75.384 96.8279 74.776 96.8279 74.136C96.8279 73.496 96.9399 72.904 97.1639 72.36C97.4199 71.784 97.7559 71.304 98.1719 70.92C98.5879 70.504 99.0679 70.184 99.6119 69.96C100.156 69.704 100.748 69.576 101.388 69.576C101.996 69.576 102.572 69.704 103.116 69.96C103.692 70.184 104.188 70.504 104.604 70.92C105.02 71.304 105.34 71.784 105.564 72.36C105.82 72.904 105.948 73.496 105.948 74.136ZM124.107 114.6H118.059V81.192H124.107V84.648H124.971C125.611 83.336 126.539 82.328 127.755 81.624C128.971 80.888 130.523 80.52 132.411 80.52C133.819 80.52 135.147 80.792 136.395 81.336C137.675 81.88 138.779 82.68 139.707 83.736C140.667 84.76 141.419 86.024 141.963 87.528C142.539 89.032 142.827 90.744 142.827 92.664V93.528C142.827 95.48 142.555 97.208 142.01 98.712C141.467 100.216 140.731 101.496 139.802 102.552C138.875 103.576 137.771 104.36 136.491 104.904C135.243 105.416 133.883 105.672 132.411 105.672C131.323 105.672 130.379 105.56 129.579 105.336C128.779 105.112 128.075 104.808 127.467 104.424C126.891 104.04 126.395 103.608 125.979 103.128C125.595 102.616 125.259 102.088 124.971 101.544H124.107V114.6ZM130.443 99.912C132.331 99.912 133.851 99.336 135.003 98.184C136.187 97 136.779 95.4 136.779 93.384V92.808C136.779 90.792 136.187 89.208 135.003 88.056C133.851 86.872 132.331 86.28 130.443 86.28C128.555 86.28 127.019 86.888 125.835 88.104C124.683 89.288 124.107 90.856 124.107 92.808V93.384C124.107 95.336 124.683 96.92 125.835 98.136C127.019 99.32 128.555 99.912 130.443 99.912Z" fill="#F2F2F2"/>
</svg>
